<svg width="54" height="50" viewBox="0 0 54 50" fill="none" xmlns="http://www.w3.org/2000/svg">
<path d="M30.5811 6.35137L28.3448 8.05692C27.7267 8.52827 27.608 9.40981 28.0794 10.0279L32.3432 15.6187L30.1069 17.3243L35.2235 24.0334L37.4599 22.3278L41.7237 27.9187C42.1951 28.5367 43.0766 28.6554 43.6947 28.1841L45.931 26.4785C46.5491 26.0072 46.6678 25.1257 46.1964 24.5076L32.5521 6.61678C32.0807 5.99872 31.1992 5.88002 30.5811 6.35137Z" fill="#C4C4C4"/>
<path d="M21.0137 24.2598L27.8718 19.0294L32.9885 25.7385L26.1303 30.9688L21.0137 24.2598Z" fill="#C4C4C4"/>
<path d="M38.9971 3.47098L35.6426 6.0293L47.5814 21.6838L50.9359 19.1255C51.554 18.6541 51.6727 17.7726 51.2013 17.1545L40.9681 3.73638C40.4967 3.11833 39.6152 2.99962 38.9971 3.47098Z" fill="#C4C4C4"/>
<path d="M12.2766 22.0801C11.8053 21.4621 10.9238 21.3434 10.3057 21.8147L8.06935 23.5203C7.45129 23.9916 7.33259 24.8732 7.80394 25.4912L21.4483 43.382C21.9196 44.0001 22.8012 44.1188 23.4192 43.6474L25.6556 41.9419C26.2736 41.4705 26.3923 40.589 25.921 39.9709L21.6571 34.3801L23.8935 32.6745L18.7769 25.9655L16.5405 27.671L12.2766 22.0801Z" fill="#C4C4C4"/>
<path d="M2.80004 32.8447L13.0333 46.2629C13.5047 46.8809 14.3862 46.9996 15.0043 46.5283L18.3588 43.9699L6.41997 28.3155L3.06544 30.8738C2.44739 31.3451 2.32868 32.2267 2.80004 32.8447Z" fill="#C4C4C4"/>
</svg>
